HIERARCHY
ROOT mixamorigHips
{
	OFFSET 0.000000 0.000000 -95.415794
	CHANNELS 6 Xposition Yposition Zposition Xrotation Yrotation Zrotation
	JOINT mixamorigSpine
	{
		OFFSET 0.000000 -0.358200 -10.058800
		CHANNELS 3 Xrotation Yrotation Zrotation
		JOINT mixamorigSpine1
		{
			OFFSET 0.000000 -0.417847 -11.735359
			CHANNELS 3 Xrotation Yrotation Zrotation
			JOINT mixamorigSpine2
			{
				OFFSET 0.000000 -0.477538 -13.411812
				CHANNELS 3 Xrotation Yrotation Zrotation
				JOINT mixamorigNeck
				{
					OFFSET 0.000000 -0.537228 -15.088242
					CHANNELS 3 Xrotation Yrotation Zrotation
					JOINT mixamorigHead
					{
						OFFSET 0.000000 2.687800 -8.085602
						CHANNELS 3 Xrotation Yrotation Zrotation
						JOINT mixamorigHeadTop_End
						{
							OFFSET 0.000000 7.146700 -21.499207
							CHANNELS 3 Xrotation Yrotation Zrotation
							End Site
							{
								OFFSET 0.000000 0.000000 -22.655930
							}
						}
					}
				}
				JOINT mixamorigLeftShoulder
				{
					OFFSET 5.949100 -0.535855 -13.237015
					CHANNELS 3 Xrotation Yrotation Zrotation
					JOINT mixamorigLeftArm
					{
						OFFSET 11.918104 0.002851 3.676208
						CHANNELS 3 Xrotation Yrotation Zrotation
						JOINT mixamorigLeftForeArm
						{
							OFFSET 23.814898 -0.000001 0.000000
							CHANNELS 3 Xrotation Yrotation Zrotation
							JOINT mixamorigLeftHand
							{
								OFFSET 24.556309 -0.000001 0.000000
								CHANNELS 3 Xrotation Yrotation Zrotation
								JOINT mixamorigLeftHandThumb1
								{
									OFFSET 2.802582 2.556223 1.204224
									CHANNELS 3 Xrotation Yrotation Zrotation
									JOINT mixamorigLeftHandThumb2
									{
										OFFSET 2.466209 1.423865 1.423859
										CHANNELS 3 Xrotation Yrotation Zrotation
										JOINT mixamorigLeftHandThumb3
										{
											OFFSET 2.369835 1.368225 1.368225
											CHANNELS 3 Xrotation Yrotation Zrotation
											JOINT mixamorigLeftHandThumb4
											{
												OFFSET 1.846512 1.066086 1.066086
												CHANNELS 3 Xrotation Yrotation Zrotation
												End Site
												{
													OFFSET 1.556206 1.486212 1.025696
												}
											}
										}
									}
								}
								JOINT mixamorigLeftHandIndex1
								{
									OFFSET 8.620476 2.435161 0.225967
									CHANNELS 3 Xrotation Yrotation Zrotation
									JOINT mixamorigLeftHandIndex2
									{
										OFFSET 3.045731 -0.000000 0.000000
										CHANNELS 3 Xrotation Yrotation Zrotation
										JOINT mixamorigLeftHandIndex3
										{
											OFFSET 2.806702 -0.000000 0.000000
											CHANNELS 3 Xrotation Yrotation Zrotation
											JOINT mixamorigLeftHandIndex4
											{
												OFFSET 2.440117 -0.000000 0.000000
												CHANNELS 3 Xrotation Yrotation Zrotation
												End Site
												{
													OFFSET 2.440094 -0.008200 0.000061
												}
											}
										}
									}
								}
								JOINT mixamorigLeftHandMiddle1
								{
									OFFSET 8.484863 -0.000000 0.000000
									CHANNELS 3 Xrotation Yrotation Zrotation
									JOINT mixamorigLeftHandMiddle2
									{
										OFFSET 3.193611 -0.000000 0.000000
										CHANNELS 3 Xrotation Yrotation Zrotation
										JOINT mixamorigLeftHandMiddle3
										{
											OFFSET 3.085205 -0.000000 0.000000
											CHANNELS 3 Xrotation Yrotation Zrotation
											JOINT mixamorigLeftHandMiddle4
											{
												OFFSET 2.692902 -0.000000 0.000000
												CHANNELS 3 Xrotation Yrotation Zrotation
												End Site
												{
													OFFSET 2.692902 -0.003300 0.000031
												}
											}
										}
									}
								}
								JOINT mixamorigLeftHandRing1
								{
									OFFSET 8.270775 -2.023483 -0.052689
									CHANNELS 3 Xrotation Yrotation Zrotation
									JOINT mixamorigLeftHandRing2
									{
										OFFSET 2.740799 -0.000000 0.000000
										CHANNELS 3 Xrotation Yrotation Zrotation
										JOINT mixamorigLeftHandRing3
										{
											OFFSET 2.757607 -0.000000 0.000000
											CHANNELS 3 Xrotation Yrotation Zrotation
											JOINT mixamorigLeftHandRing4
											{
												OFFSET 2.285004 -0.000000 0.000000
												CHANNELS 3 Xrotation Yrotation Zrotation
												End Site
												{
													OFFSET 2.285004 0.003000 -0.000031
												}
											}
										}
									}
								}
								JOINT mixamorigLeftHandPinky1
								{
									OFFSET 7.700752 -3.945376 0.253616
									CHANNELS 3 Xrotation Yrotation Zrotation
									JOINT mixamorigLeftHandPinky2
									{
										OFFSET 2.527405 0.000000 0.000000
										CHANNELS 3 Xrotation Yrotation Zrotation
										JOINT mixamorigLeftHandPinky3
										{
											OFFSET 2.003403 0.000000 0.000000
											CHANNELS 3 Xrotation Yrotation Zrotation
											JOINT mixamorigLeftHandPinky4
											{
												OFFSET 1.854500 0.000000 0.000000
												CHANNELS 3 Xrotation Yrotation Zrotation
												End Site
												{
													OFFSET 1.854507 -0.001300 0.000015
												}
											}
										}
									}
								}
							}
						}
					}
				}
				JOINT mixamorigRightShoulder
				{
					OFFSET -5.949100 -0.538657 -13.237015
					CHANNELS 3 Xrotation Yrotation Zrotation
					JOINT mixamorigRightArm
					{
						OFFSET -11.918104 -0.002847 3.676208
						CHANNELS 3 Xrotation Yrotation Zrotation
						JOINT mixamorigRightForeArm
						{
							OFFSET -23.819902 0.000001 0.000000
							CHANNELS 3 Xrotation Yrotation Zrotation
							JOINT mixamorigRightHand
							{
								OFFSET -24.559902 0.000001 0.000000
								CHANNELS 3 Xrotation Yrotation Zrotation
								JOINT mixamorigRightHandThumb1
								{
									OFFSET -2.702209 2.527615 1.308395
									CHANNELS 3 Xrotation Yrotation Zrotation
									JOINT mixamorigRightHandThumb2
									{
										OFFSET -2.432022 1.404127 1.404129
										CHANNELS 3 Xrotation Yrotation Zrotation
										JOINT mixamorigRightHandThumb3
										{
											OFFSET -2.375206 1.371325 1.371323
											CHANNELS 3 Xrotation Yrotation Zrotation
											JOINT mixamorigRightHandThumb4
											{
												OFFSET -1.987808 1.147661 1.147659
												CHANNELS 3 Xrotation Yrotation Zrotation
												End Site
												{
													OFFSET -1.835846 1.380323 1.144562
												}
											}
										}
									}
								}
								JOINT mixamorigRightHandIndex1
								{
									OFFSET -8.671478 2.442636 0.301926
									CHANNELS 3 Xrotation Yrotation Zrotation
									JOINT mixamorigRightHandIndex2
									{
										OFFSET -3.068298 0.000000 0.000000
										CHANNELS 3 Xrotation Yrotation Zrotation
										JOINT mixamorigRightHandIndex3
										{
											OFFSET -2.779701 0.000000 0.000000
											CHANNELS 3 Xrotation Yrotation Zrotation
											JOINT mixamorigRightHandIndex4
											{
												OFFSET -2.490097 0.000000 0.000000
												CHANNELS 3 Xrotation Yrotation Zrotation
												End Site
												{
													OFFSET -2.490097 -0.000700 0.000000
												}
											}
										}
									}
								}
								JOINT mixamorigRightHandMiddle1
								{
									OFFSET -8.656311 0.000000 0.000000
									CHANNELS 3 Xrotation Yrotation Zrotation
									JOINT mixamorigRightHandMiddle2
									{
										OFFSET -3.230400 0.000000 0.000000
										CHANNELS 3 Xrotation Yrotation Zrotation
										JOINT mixamorigRightHandMiddle3
										{
											OFFSET -3.025497 0.000000 0.000000
											CHANNELS 3 Xrotation Yrotation Zrotation
											JOINT mixamorigRightHandMiddle4
											{
												OFFSET -2.688805 0.000000 0.000000
												CHANNELS 3 Xrotation Yrotation Zrotation
												End Site
												{
													OFFSET -2.688797 -0.000700 0.000000
												}
											}
										}
									}
								}
								JOINT mixamorigRightHandRing1
								{
									OFFSET -8.628174 -2.089274 -0.073822
									CHANNELS 3 Xrotation Yrotation Zrotation
									JOINT mixamorigRightHandRing2
									{
										OFFSET -2.674103 0.000000 0.000000
										CHANNELS 3 Xrotation Yrotation Zrotation
										JOINT mixamorigRightHandRing3
										{
											OFFSET -2.630905 0.000000 0.000000
											CHANNELS 3 Xrotation Yrotation Zrotation
											JOINT mixamorigRightHandRing4
											{
												OFFSET -2.160599 0.000000 0.000000
												CHANNELS 3 Xrotation Yrotation Zrotation
												End Site
												{
													OFFSET -2.160599 -0.000900 0.000000
												}
											}
										}
									}
								}
								JOINT mixamorigRightHandPinky1
								{
									OFFSET -7.514580 -3.927982 0.339432
									CHANNELS 3 Xrotation Yrotation Zrotation
									JOINT mixamorigRightHandPinky2
									{
										OFFSET -2.510002 0.000000 0.000000
										CHANNELS 3 Xrotation Yrotation Zrotation
										JOINT mixamorigRightHandPinky3
										{
											OFFSET -2.099197 0.000000 0.000000
											CHANNELS 3 Xrotation Yrotation Zrotation
											JOINT mixamorigRightHandPinky4
											{
												OFFSET -1.845604 0.000000 0.000000
												CHANNELS 3 Xrotation Yrotation Zrotation
												End Site
												{
													OFFSET -1.845596 0.001600 0.000015
												}
											}
										}
									}
								}
							}
						}
					}
				}
			}
		}
	}
	JOINT mixamorigLeftUpLeg
	{
		OFFSET 9.392100 -0.093200 5.572197
		CHANNELS 3 Xrotation Yrotation Zrotation
		JOINT mixamorigLeftLeg
		{
			OFFSET 0.292645 -2.734330 42.228855
			CHANNELS 3 Xrotation Yrotation Zrotation
			JOINT mixamorigLeftFoot
			{
				OFFSET -0.292647 -1.515097 39.069244
				CHANNELS 3 Xrotation Yrotation Zrotation
				JOINT mixamorigLeftToeBase
				{
					OFFSET 1.771321 12.504712 7.534380
					CHANNELS 3 Xrotation Yrotation Zrotation
					JOINT mixamorigLeftToe_End
					{
						OFFSET 0.606595 5.917521 -0.250482
						CHANNELS 3 Xrotation Yrotation Zrotation
						End Site
						{
							OFFSET 0.606595 5.917521 -0.250482
						}
					}
				}
			}
		}
	}
	JOINT mixamorigRightUpLeg
	{
		OFFSET -9.392100 -0.015200 5.572197
		CHANNELS 3 Xrotation Yrotation Zrotation
		JOINT mixamorigRightLeg
		{
			OFFSET -0.292665 -2.850109 42.228924
			CHANNELS 3 Xrotation Yrotation Zrotation
			JOINT mixamorigRightFoot
			{
				OFFSET 0.292671 -1.341140 39.069195
				CHANNELS 3 Xrotation Yrotation Zrotation
				JOINT mixamorigRightToeBase
				{
					OFFSET -1.771318 12.379671 7.534140
					CHANNELS 3 Xrotation Yrotation Zrotation
					JOINT mixamorigRightToe_End
					{
						OFFSET -0.606596 6.000615 -0.250612
						CHANNELS 3 Xrotation Yrotation Zrotation
						End Site
						{
							OFFSET -0.606596 6.000614 -0.250612
						}
					}
				}
			}
		}
	}
}
MOTION
Frames: 5
Frame Time: 0.033333
0.763978 -0.205262 -94.765274 -2.938781 -3.224001 5.905861 3.360148 2.479106 -1.544203 1.166141 1.801052 -0.350366 1.140558 1.803882 -0.369261 5.562858 0.393188 0.018663 -8.011034 -0.328991 -1.714228 0.000000 -0.000000 0.000000 4.777306 -11.815323 17.703603 44.216548 -61.666056 45.326956 -0.000012 0.000005 1.822629 -33.666781 -5.332423 2.355723 -0.578151 5.018417 -1.997189 19.273218 15.416896 -26.302753 -13.267076 9.016756 -3.551039 0.000000 0.000006 -0.000004 0.144128 -7.454689 1.051110 -0.280481 -17.365505 -1.836444 -0.058219 -8.035172 -0.828890 0.000000 -0.000004 0.000001 -0.810574 -15.482371 -2.761971 -0.279452 -17.334907 -1.833004 -0.314320 -18.341184 -1.946873 -0.000000 0.000000 0.000000 -1.264279 -21.030754 -3.867064 -0.412696 -20.876350 -2.239888 -0.296525 -17.835992 -1.889540 0.000001 0.000002 -0.000001 -1.932309 -26.871841 -6.073414 -0.280844 -17.376329 -1.837677 -0.251512 -16.477575 -1.736983 0.000001 0.000002 -0.000001 5.206812 14.007098 -16.026872 51.742740 47.463111 -48.211099 0.000008 -0.000000 -8.363512 -21.596782 5.742636 -1.941718 -1.743201 -3.925086 0.075020 21.011979 -13.907874 30.988626 -14.888528 -12.619595 3.439400 -0.000002 0.000001 -0.000000 0.176376 7.145318 -1.231102 -0.224099 17.409476 1.463700 -0.046577 8.060335 0.660994 0.000001 0.000002 -0.000001 -0.776992 15.740442 2.515528 -0.221413 17.308014 1.454633 -0.249105 18.315490 1.545197 0.000001 0.000000 0.000002 -1.167476 21.078367 3.339806 -0.328676 20.896110 1.782245 -0.236019 17.847913 1.503029 0.000002 -0.000003 0.000000 -1.826584 27.660226 5.458639 -0.223689 17.393878 1.462308 -0.200202 16.488437 1.381668 0.000000 -0.000001 -0.000002 -11.191425 10.026275 -14.950589 16.132707 4.437873 -3.146431 0.146233 -7.203575 0.158416 -4.786158 0.000004 -0.000001 0.000000 -0.000000 0.000002 -2.237282 2.409489 10.069479 9.954276 -3.306432 9.587534 -3.933809 3.535817 1.616537 -7.262795 -0.000003 -0.000005 0.000001 0.000001 -0.000002 
0.823607 -0.205301 -94.782631 -3.023237 -3.231358 5.693917 3.360733 2.467551 -1.558950 1.168150 1.783405 -0.376208 1.142563 1.786446 -0.395297 5.592773 0.391959 0.029536 -7.921413 -0.303297 -1.655180 -0.000000 0.000000 0.000000 4.771577 -11.803903 17.688202 44.599926 -61.644459 45.754628 -0.000010 -0.000009 1.951671 -33.815826 -5.357433 2.476689 -0.588357 5.020105 -1.982187 19.270163 15.418879 -26.297927 -13.266887 9.016814 -3.551439 0.000002 0.000005 0.000000 0.141009 -7.467580 1.061214 -0.280372 -17.362365 -1.836093 -0.058173 -8.031999 -0.828560 -0.000001 -0.000003 0.000001 -0.809997 -15.475117 -2.747884 -0.279712 -17.342610 -1.833873 -0.314596 -18.348885 -1.947737 0.000001 0.000000 -0.000000 -1.263549 -21.022453 -3.864175 -0.412626 -20.874865 -2.239719 -0.296483 -17.834587 -1.889388 -0.000000 0.000003 -0.000001 -1.928705 -26.857243 -6.080300 -0.280945 -17.379461 -1.838024 -0.251620 -16.480688 -1.737329 0.000000 -0.000003 0.000001 5.208923 13.993172 -16.040940 51.927224 47.256979 -48.334493 -0.000002 0.000023 -8.437712 -21.777341 5.812394 -1.999752 -1.750427 -4.022654 0.047033 20.932469 -13.935253 30.878138 -14.845464 -12.638752 3.503257 -0.000000 0.000001 -0.000000 0.183589 6.930934 -1.289896 -0.224768 17.433563 1.465847 -0.046853 8.084545 0.663006 0.000001 0.000001 -0.000001 -0.761717 15.512137 2.478090 -0.221683 17.317955 1.455512 -0.249384 18.325520 1.546097 -0.000001 -0.000000 0.000001 -1.151421 20.875882 3.326060 -0.329699 20.927129 1.785140 -0.236888 17.879074 1.505840 0.000001 -0.000004 0.000001 -1.786680 27.308189 5.448391 -0.224204 17.413183 1.464037 -0.200721 16.508922 1.383490 0.000000 -0.000000 0.000001 -11.100237 9.997837 -14.978238 16.017477 4.369949 -2.876902 0.196127 -7.092253 0.117605 -4.799239 0.000002 -0.000006 0.000000 -0.000000 0.000003 -1.919545 2.451809 10.084786 9.487876 -3.374459 9.768960 -3.691475 3.587592 1.605787 -7.268455 -0.000004 0.000002 0.000001 0.000001 -0.000003 
0.858114 -0.197027 -94.798912 -3.116039 -3.233669 5.513346 3.362887 2.454625 -1.571185 1.171100 1.763680 -0.397906 1.145517 1.766923 -0.417239 5.628918 0.389279 0.035080 -7.818715 -0.267866 -1.619889 0.000000 0.000000 -0.000000 4.766273 -11.789256 17.676816 44.954956 -61.636918 46.074148 0.000006 -0.000004 2.038357 -33.935713 -5.408717 2.539939 -0.584489 4.994718 -1.991843 19.278749 15.413406 -26.311472 -13.265776 9.016935 -3.553634 0.000001 0.000001 -0.000003 0.142885 -7.478077 1.048482 -0.280240 -17.358540 -1.835668 -0.058113 -8.028204 -0.828160 0.000002 0.000001 0.000000 -0.810310 -15.478812 -2.754110 -0.279759 -17.344639 -1.834107 -0.314685 -18.350910 -1.947971 -0.000000 0.000001 -0.000000 -1.264279 -21.030494 -3.864866 -0.412629 -20.874820 -2.239710 -0.296479 -17.834537 -1.889379 -0.000000 -0.000003 0.000000 -1.925853 -26.869414 -6.100954 -0.280872 -17.377608 -1.837821 -0.251556 -16.478827 -1.737121 -0.000000 -0.000001 0.000000 5.209394 13.985182 -16.045991 52.120494 47.096958 -48.397979 -0.000005 0.000022 -8.441284 -21.916216 5.971315 -1.921414 -1.753532 -4.107704 0.027869 20.867630 -13.957515 30.787972 -14.802039 -12.658013 3.567607 -0.000000 0.000001 0.000002 0.190472 6.759642 -1.352844 -0.224378 17.418919 1.464544 -0.046673 8.069925 0.661798 -0.000001 0.000003 -0.000002 -0.745124 15.262563 2.419546 -0.221970 17.329496 1.456545 -0.249733 18.337255 1.547161 -0.000002 -0.000000 0.000001 -1.134055 20.655196 3.312317 -0.329508 20.921409 1.784617 -0.236733 17.873540 1.505327 -0.000001 -0.000001 0.000000 -1.743481 26.933816 5.451118 -0.224642 17.429605 1.465503 -0.201179 16.526927 1.385089 -0.000001 0.000002 -0.000002 -10.974828 9.970272 -14.997137 15.879107 4.315556 -2.643537 0.254304 -7.012199 0.071417 -4.813215 0.000004 -0.000005 0.000000 0.000001 -0.000000 -1.596710 2.491472 10.106562 9.042423 -3.423027 9.911540 -3.472806 3.613836 1.595346 -7.264048 -0.000008 0.000013 0.000001 0.000001 0.000002 
0.870516 -0.176872 -94.814072 -3.224055 -3.232553 5.364442 3.367670 2.440377 -1.577444 1.176009 1.742167 -0.409669 1.150454 1.745568 -0.429309 5.672620 0.389408 0.037759 -7.705860 -0.236793 -1.601211 0.000000 -0.000000 0.000000 4.763479 -11.767385 17.681119 45.257919 -61.660346 46.270188 -0.000018 0.000005 2.057580 -33.972951 -5.488585 2.519892 -0.564593 4.949671 -2.027713 19.295711 15.402647 -26.338164 -13.263597 9.017200 -3.557992 0.000003 0.000000 0.000003 0.146676 -7.492136 1.025706 -0.280181 -17.356718 -1.835463 -0.058096 -8.026454 -0.827976 -0.000000 -0.000001 0.000000 -0.811931 -15.500194 -2.782432 -0.279885 -17.347685 -1.834448 -0.314775 -18.353914 -1.948315 0.000000 0.000003 -0.000000 -1.265740 -21.046914 -3.871526 -0.412667 -20.875736 -2.239820 -0.296511 -17.835299 -1.889463 -0.000000 0.000005 0.000000 -1.921983 -26.900449 -6.136283 -0.280648 -17.371049 -1.837083 -0.251358 -16.472296 -1.736389 -0.000000 0.000000 0.000000 5.207814 13.996218 -16.035201 52.317480 46.952271 -48.411257 0.000009 0.000020 -8.377732 -21.980537 6.186742 -1.745406 -1.761471 -4.187768 0.001610 20.802874 -13.979691 30.697951 -14.754250 -12.679167 3.638361 -0.000005 0.000005 -0.000003 0.199556 6.549824 -1.427250 -0.223233 17.376350 1.460732 -0.046184 8.027324 0.658260 0.000000 -0.000003 0.000001 -0.723784 14.938344 2.338567 -0.222113 17.334873 1.457028 -0.249885 18.342939 1.547684 0.000002 -0.000000 0.000001 -1.113196 20.388321 3.286529 -0.328503 20.891322 1.781810 -0.235909 17.843487 1.502627 0.000001 -0.000003 -0.000001 -1.694298 26.480037 5.452505 -0.224911 17.439233 1.466361 -0.201446 16.537920 1.386066 0.000001 0.000002 -0.000001 -10.809887 9.940946 -15.005215 15.725903 4.279280 -2.450763 0.313110 -6.964977 0.020492 -4.835052 0.000001 0.000004 0.000000 -0.000000 -0.000001 -1.258858 2.526657 10.138581 8.616991 -3.452107 10.010382 -3.279309 3.617950 1.585756 -7.251741 -0.000007 0.000004 0.000001 0.000001 -0.000002 
0.863567 -0.144455 -94.828049 -3.344973 -3.231845 5.249755 3.373902 2.424858 -1.576919 1.181490 1.718829 -0.410069 1.155982 1.722316 -0.430073 5.723665 0.398312 0.039429 -7.592420 -0.216924 -1.594182 -0.000000 0.000000 -0.000000 4.761312 -11.741829 17.690716 45.531561 -61.708587 46.382121 -0.000004 0.000006 2.001244 -33.896012 -5.591113 2.402053 -0.533459 4.891317 -2.081841 19.320763 15.386721 -26.377569 -13.260089 9.017628 -3.565034 0.000003 0.000002 0.000004 0.148345 -7.524447 1.006204 -0.280247 -17.358502 -1.835666 -0.058125 -8.028286 -0.828163 -0.000001 0.000000 0.000000 -0.814977 -15.540159 -2.819560 -0.280180 -17.356539 -1.835440 -0.315093 -18.362718 -1.949316 -0.000000 0.000001 -0.000000 -1.267797 -21.069254 -3.888353 -0.412721 -20.876953 -2.239964 -0.296529 -17.836033 -1.889542 0.000000 0.000005 0.000001 -1.917666 -26.944287 -6.181603 -0.280469 -17.365332 -1.836432 -0.251175 -16.466637 -1.735760 -0.000000 0.000001 0.000000 5.204297 14.037872 -16.004559 52.512892 46.788391 -48.381420 -0.000006 -0.000003 -8.258188 -21.933848 6.415326 -1.503586 -1.771894 -4.252944 -0.026221 20.745475 -13.999314 30.618082 -14.707108 -12.699967 3.708125 -0.000003 -0.000001 0.000001 0.210116 6.303485 -1.504174 -0.223118 17.372689 1.460403 -0.046152 8.023649 0.657953 -0.000001 0.000001 -0.000001 -0.700651 14.583584 2.250503 -0.222055 17.332916 1.456852 -0.249842 18.341269 1.547529 0.000000 -0.000001 0.000002 -1.091135 20.103482 3.251151 -0.327784 20.869604 1.779772 -0.235308 17.821685 1.500673 0.000001 0.000000 -0.000001 -1.651080 25.994611 5.452448 -0.225358 17.455541 1.467813 -0.201874 16.554951 1.387574 0.000000 0.000001 -0.000001 -10.610692 9.916323 -15.006656 15.566981 4.257048 -2.297833 0.366914 -6.946722 -0.032889 -4.861965 -0.000001 -0.000000 -0.000001 -0.000000 -0.000003 -0.903582 2.561647 10.179126 8.200165 -3.463974 10.049846 -3.104470 3.601169 1.591685 -7.246199 -0.000006 -0.000002 -0.000000 0.000000 -0.000003 
